<svg width="70" height="70" viewBox="0 0 70 70" fill="none" xmlns="http://www.w3.org/2000/svg">
<g clip-path="url(#clip0_54_120)">
<path d="M31.6661 0.17336C4.54932 2.74681 -10.0424 35.0486 7.91664 57.1101C16.2132 67.3444 30.0745 72.4081 43.7397 68.8838C51.0623 66.9938 57.3872 62.8097 61.8948 57.3597C81.582 33.6757 63.041 -2.82206 31.6661 0.17336Z" fill="url(#paint0_radial_54_120)"/>
<path d="M62.0373 34.9358C62.0373 36.5167 61.9007 38.0679 61.6394 39.5715C61.4969 40.3798 61.3247 41.1762 61.1168 41.9608C59.9647 46.2637 57.7792 50.1387 54.8454 53.3124C53.7823 54.4654 52.6183 55.5233 51.3652 56.4743C50.2131 57.3539 48.9837 58.1443 47.695 58.8338C45.949 59.7669 44.0902 60.5098 42.1422 61.0447C39.8676 61.6687 37.4743 61.9956 35.0037 61.9956C33.8694 61.9956 32.7529 61.9243 31.6602 61.7876C22.5025 60.6583 14.7582 54.9409 10.8029 47.0066C9.25884 43.9161 8.29081 40.4928 8.03544 36.8733C7.98793 36.2314 7.96417 35.5836 7.96417 34.9358C7.96417 30.8527 8.86688 26.9837 10.4822 23.5128C11.9254 20.4104 13.9446 17.6289 16.3914 15.3051C18.6541 13.1536 21.2909 11.3885 24.195 10.1225C27.503 8.67832 31.1613 7.87598 34.9978 7.87598C46.6557 7.87598 56.5914 15.2575 60.3863 25.6108C61.3306 28.1901 61.8948 30.9478 62.0136 33.8303C62.0314 34.1929 62.0373 34.5614 62.0373 34.9358Z" fill="url(#paint1_radial_54_120)"/>
<path d="M10.7971 47.0064C10.613 46.6379 10.4348 46.2576 10.2685 45.8772C9.03921 43.1017 8.26716 40.0884 8.03555 36.9207C8.03555 36.9028 8.03554 36.8909 8.0296 36.8731C8.57598 36.8018 9.32427 37.0514 9.87065 38.5907C10.5774 40.5936 13.8675 45.4731 10.7971 47.0064Z" fill="#F79C41"/>
<path d="M32.0345 42.4065C31.9988 42.6264 31.9216 42.8344 31.8088 43.0246C30.9477 44.5698 27.9485 45.3306 24.605 44.7541C21.6949 44.2489 19.3729 42.8701 18.6246 41.3723C18.4048 40.9325 18.3217 40.4868 18.3989 40.0411C18.7374 38.0917 22.0097 37.6221 25.7749 38.2818C29.5402 38.9297 32.373 40.4571 32.0345 42.4065Z" fill="#F79C41"/>
<path d="M24.0229 29.5212L24.0169 29.5272C23.2687 30.6564 20.9347 29.6223 18.2206 27.8452C16.0055 26.3951 14.4257 24.9508 14.3188 23.8513C14.2951 23.6017 14.3485 23.364 14.4851 23.15C15.2334 22.0089 18.2028 21.9317 20.9228 23.7146C23.6428 25.4976 24.7712 28.3801 24.0229 29.5212Z" fill="#F79C41"/>
<path d="M53.9784 46.1864C51.787 48.0169 49.162 48.4865 48.1227 47.2324C48.0693 47.167 48.0218 47.1017 47.9802 47.0304C47.1844 45.7288 48.1346 43.3931 50.2132 41.6636C52.3274 39.8984 54.8396 39.3992 55.9501 40.4868C55.9917 40.5284 56.0333 40.57 56.0689 40.6116C57.1082 41.8656 56.1758 44.3618 53.9784 46.1864Z" fill="#F79C41"/>
<path d="M38.1692 31.1795C35.954 32.9327 33.7032 33.9015 32.4145 32.273C32.2898 32.1185 32.1888 31.9521 32.0997 31.7738C31.2802 30.1216 32.0879 27.7264 34.0952 26.1396C36.3104 24.3863 39.3332 23.5602 41.394 26.1693C41.4059 26.1871 41.4237 26.2049 41.4297 26.2228C42.6412 27.8334 40.3666 29.444 38.1692 31.1795Z" fill="#F79C41"/>
<path d="M29.3203 55.6659C28.9996 55.9749 28.3641 56.1473 27.3664 56.0997C23.7081 55.9393 19.735 51.4818 20.8456 50.0495C20.8634 50.0257 20.8812 50.0079 20.899 49.99C22.0512 48.6884 24.9374 51.0301 26.4103 51.8027C28.8393 53.0746 30.1696 54.8516 29.3203 55.6659Z" fill="#F79C41"/>
<path d="M43.6686 52.3792C43.6745 53.2232 42.5284 54.1146 40.7229 54.1919C37.421 54.3346 35.5383 53.6986 35.0929 52.5218C35.0454 52.397 35.0157 52.2663 34.9979 52.1236C34.8375 50.6913 37.8604 50.935 39.452 50.8518C42.4393 50.6913 43.6627 51.5115 43.6686 52.3792Z" fill="#F79C41"/>
<path d="M53.6755 33.3904C53.3132 33.9312 52.6124 34.2997 51.7038 34.2997C48.8412 34.2997 45.0226 32.2314 45.5036 30.3177C45.5571 30.0978 45.6402 29.9076 45.7352 29.7531C46.4717 28.5644 48.3305 29.1409 50.1181 29.5213C53.6933 30.282 54.4594 32.2314 53.6755 33.3904Z" fill="#F79C41"/>
<path d="M44.3812 19.3345C44.3455 19.2513 44.3277 19.1562 44.3158 19.0552C44.2446 18.241 45.0463 17.0523 46.6082 16.6244C47.6238 16.3451 48.9956 16.3807 49.8449 16.9037C50.219 17.1355 50.4863 17.4565 50.5872 17.8963C50.8248 18.9898 44.886 20.6005 44.3812 19.3345Z" fill="#F79C41"/>
<path d="M28.0614 16.8027C27.8594 16.9216 27.6219 16.8859 27.3665 16.6304C25.6146 14.8771 25.4602 12.0124 26.4104 11.537C26.7845 11.3468 27.1112 11.2873 27.3903 11.3171C29.2907 11.531 29.0828 16.1846 28.0614 16.8027Z" fill="#F79C41"/>
<path d="M58.0584 26.8171C57.9337 26.8765 57.7852 26.8884 57.6248 26.8468C56.9597 26.6745 56.0926 25.6522 55.8313 24.1129C55.6828 23.2095 56.1342 22.3418 56.7221 22.0684C57.3754 21.7594 58.2009 22.1873 58.5335 24.1129C58.7295 25.2065 58.6998 26.4962 58.0584 26.8171Z" fill="#F79C41"/>
<path d="M54.8455 53.3124C52.7966 55.5293 50.3795 57.4014 47.6951 58.8278C47.3923 58.6792 47.1191 58.4593 47.0122 58.1443C46.9172 57.865 46.9587 57.5084 47.2497 57.0567C48.3603 55.3034 49.4768 52.5992 52.0186 52.4388C52.761 52.3912 53.3489 52.4804 53.8181 52.6468C54.2694 52.8132 54.602 53.0509 54.8455 53.3124Z" fill="#F79C41"/>
<path d="M42.1364 61.0387C39.8618 61.6627 37.4685 61.9896 34.9979 61.9896C33.8636 61.9896 32.7471 61.9183 31.6544 61.7816C31.6544 61.4606 31.7138 61.1159 31.9097 60.8247C32.0998 60.5454 32.4145 60.3195 32.9312 60.2363C34.8376 59.9154 35.7937 58.6435 38.4959 58.804C39.8975 58.8872 40.8774 59.5707 41.4891 60.2066C41.792 60.5275 41.9998 60.8247 42.1364 61.0387Z" fill="#F79C41"/>
<path d="M38.6799 11.7331C38.5434 12.4106 37.3972 12.6543 36.8448 12.3987C36.7261 12.3452 36.637 12.268 36.5895 12.1729C36.2688 11.5369 38.3652 10.3483 38.6562 11.3765C38.6918 11.5072 38.6978 11.6261 38.6799 11.7331Z" fill="#F79C41"/>
<path d="M30.3892 47.5059C29.6766 47.1493 29.1183 46.8699 29.2787 48.3023C29.439 49.7346 30.5496 50.0555 31.5057 50.0555C32.4559 50.0555 31.0247 47.8268 30.3892 47.5059Z" fill="#EF903A"/>
<path d="M17.1873 46.555C16.5518 46.3945 16.5518 47.5119 16.0767 48.6233C15.6016 49.7347 16.237 50.5311 17.1873 50.5311C18.1434 50.5311 18.4582 46.87 17.1873 46.555Z" fill="#EF903A"/>
<path d="M14.3247 32.2255C13.713 31.9462 13.0537 31.5896 12.8934 32.2255C12.733 32.8614 14.1643 34.6147 14.9601 34.6147C15.7559 34.6147 16.0707 33.0219 14.3247 32.2255Z" fill="#EF903A"/>
<path d="M62.0373 34.9358C62.0373 36.5167 61.9007 38.0679 61.6394 39.5716C61.4078 39.4824 61.1702 39.3219 60.9208 39.0723C59.3292 37.4795 60.5348 35.2211 60.9208 34.4544C61.3484 33.5985 61.776 33.6758 62.0135 33.8244C62.0314 34.1929 62.0373 34.5614 62.0373 34.9358Z" fill="#EF903A"/>
<path d="M45.658 36.683C44.7374 36.5701 44.2267 37.319 45.658 37.9549C47.0892 38.5968 46.9289 36.8435 45.658 36.683Z" fill="#EF903A"/>
<path d="M11.4622 29.5213C11.0346 29.7353 10.9871 30.6327 12.0976 30.4782C13.2082 30.3177 12.4124 29.0459 11.4622 29.5213Z" fill="#EF903A"/>
<path d="M34.0477 18.3838C33.5725 18.5443 32.9371 19.0197 34.0477 19.1802C35.1582 19.3347 34.5228 18.2233 34.0477 18.3838Z" fill="#EF903A"/>
<path d="M36.7497 18.3837C36.1677 18.0449 36.1143 19.6556 36.5894 20.2915C37.0645 20.9274 38.6561 19.4951 36.7497 18.3837Z" fill="#EF903A"/>
<path d="M41.8393 56.1057C41.4948 56.183 41.3642 56.7416 42.3144 57.0626C43.2705 57.3776 43.2705 55.7848 41.8393 56.1057Z" fill="#EF903A"/>
<path d="M28.0019 58.81C27.5268 58.9704 27.0457 59.2854 28.0019 59.6064C28.958 59.9214 28.477 58.6495 28.0019 58.81Z" fill="#EF903A"/>
<path d="M28.7977 35.4113C27.99 35.4529 29.7538 36.5227 30.2289 36.6831C30.704 36.8436 32.1353 35.2508 28.7977 35.4113Z" fill="#EF903A"/>
<path d="M54.881 31.2748C54.4831 31.5838 55.2017 33.3431 55.8372 33.1826C56.4726 33.0221 56.3123 30.1575 54.881 31.2748Z" fill="#EF903A"/>
<path d="M42.0889 42.4302C42.0177 42.7036 41.9286 42.971 41.8395 43.2088C41.3763 44.4509 38.6385 44.9383 37.9139 44.3677C37.8961 44.3558 37.8783 44.338 37.8605 44.3202C37.225 43.6842 37.8427 42.0855 38.1812 41.295C38.6563 40.1836 41.0437 39.3872 41.8395 39.7022C42.4809 39.9697 42.3977 41.2713 42.0889 42.4302Z" fill="#F79C41"/>
<path d="M14.3188 23.8574C14.2951 23.6078 14.3485 23.3701 14.4851 23.1561C15.2334 22.015 18.2028 21.9378 20.9228 23.7207C23.6428 25.5037 24.7712 28.3862 24.0229 29.5273L24.0169 29.5333C24.0585 28.8379 23.7675 27.8632 22.752 26.5022C20.1033 22.9659 15.275 21.7476 14.3188 23.8574Z" fill="#E27C37"/>
<path d="M32.0345 42.4063C31.9988 42.6262 31.9216 42.8342 31.8088 43.0244C31.7435 42.751 31.1555 40.6055 28.4771 39.7081C25.6977 38.7809 21.9562 37.9548 19.7292 39.7081C19.0165 40.2667 18.7136 40.8432 18.6246 41.3662C18.4048 40.9264 18.3217 40.4807 18.3989 40.0349C18.7374 38.0855 22.0097 37.616 25.7749 38.2757C29.5402 38.9295 32.373 40.4569 32.0345 42.4063Z" fill="#E27C37"/>
<path d="M36.4291 25.6998C33.4716 26.722 32.2244 29.6223 32.0997 31.7738C31.2802 30.1216 32.0879 27.7264 34.0952 26.1396C36.3104 24.3863 39.3332 23.5602 41.394 26.1693C41.4059 26.1871 41.4237 26.2049 41.4297 26.2228C40.5388 25.5333 38.9175 24.8439 36.4291 25.6998Z" fill="#E27C37"/>
<path d="M42.0889 42.4302C42.0592 41.2772 41.7741 39.9756 40.5686 40.3441C39.3333 40.7245 37.9317 42.9651 37.9198 44.3677C37.902 44.3558 37.8842 44.338 37.8664 44.3202C37.2309 43.6842 37.8486 42.0855 38.1871 41.295C38.6622 40.1836 41.0496 39.3872 41.8454 39.7022C42.4809 39.9697 42.3977 41.2713 42.0889 42.4302Z" fill="#E27C37"/>
<path d="M53.6755 33.3904C54.0378 31.2924 50.6764 30.6149 48.9957 30.0027C47.3329 29.3965 46.1926 29.6104 45.7294 29.7531C46.4658 28.5644 48.3246 29.1409 50.1122 29.5213C53.6934 30.282 54.4595 32.2314 53.6755 33.3904Z" fill="#E27C37"/>
<path d="M44.3813 19.3345C44.3457 19.2513 44.3279 19.1562 44.316 19.0552C45.3196 19.7208 47.8912 19.18 49.3105 18.5381C50.3261 18.0746 50.1598 17.397 49.845 16.9097C50.2192 17.1415 50.4864 17.4624 50.5874 17.9022C50.8249 18.9898 44.8861 20.6005 44.3813 19.3345Z" fill="#E27C37"/>
<path d="M28.0614 16.8027C27.8594 16.9216 27.6219 16.8859 27.3665 16.6304C25.6146 14.8771 25.4602 12.0124 26.4104 11.537C26.7845 11.3468 27.1112 11.2873 27.3903 11.3171C27.0043 11.3884 26.4104 11.7271 26.4104 13.1298C26.4104 14.7463 27.1884 16.0717 28.0614 16.8027Z" fill="#E27C37"/>
<path d="M38.6799 11.7331C38.6265 11.4597 38.4127 11.1982 37.706 11.3765C37.1299 11.5191 36.9102 11.9589 36.8448 12.3987C36.7261 12.3452 36.637 12.268 36.5895 12.1729C36.2688 11.5369 38.3652 10.3483 38.6562 11.3765C38.6918 11.5072 38.6978 11.6261 38.6799 11.7331Z" fill="#E27C37"/>
<path d="M29.3203 55.6659C29.1837 54.81 28.3998 53.978 27.0458 53.2351C25.2938 52.2782 24.0229 51.3273 22.9123 50.5309C22.3303 50.1148 21.5286 50.0019 20.899 49.99C22.0512 48.6884 24.9375 51.0301 26.4103 51.8027C28.8393 53.0746 30.1696 54.8516 29.3203 55.6659Z" fill="#E27C37"/>
<path d="M43.6686 52.3791C43.4132 51.7432 42.6412 51.4817 41.3584 51.4817H36.9043C35.1998 51.4817 35.0929 52.4683 35.0929 52.5158C35.0454 52.391 35.0157 52.2603 34.9979 52.1176C34.8375 50.6853 37.8604 50.929 39.452 50.8458C42.4393 50.6912 43.6627 51.5114 43.6686 52.3791Z" fill="#E27C37"/>
<path d="M41.4891 60.2124C41.792 60.5215 41.9998 60.8246 42.1364 61.0385C39.8618 61.6626 37.4685 61.9894 34.9979 61.9894C33.8636 61.9894 32.7471 61.9181 31.6544 61.7814C31.6544 61.4605 31.7138 61.1158 31.9097 60.8246C37.1953 62.0727 40.2419 60.9137 41.4891 60.2124Z" fill="#E27C37"/>
<path d="M54.8454 53.3123C52.7965 55.5291 50.3794 57.4013 47.695 58.8277C47.3922 58.6791 47.119 58.4592 47.0121 58.1442C51.4484 56.4801 53.3666 53.4668 53.818 52.6526C54.2693 52.8131 54.6019 53.0508 54.8454 53.3123Z" fill="#E27C37"/>
<path d="M55.9501 40.4868C55.5938 40.362 53.0579 39.6547 50.1063 43.0484C48.6157 44.766 48.099 46.0973 47.9802 47.0304C47.1844 45.7288 48.1346 43.3931 50.2132 41.6636C52.3274 39.9044 54.8396 39.3992 55.9501 40.4868Z" fill="#E27C37"/>
<path d="M57.6248 26.8409C56.9597 26.6686 56.0926 25.6463 55.8313 24.107C55.6828 23.2036 56.1342 22.3359 56.7221 22.0625C56.4668 22.4013 56.2292 22.9183 56.3064 23.6315C56.443 24.7845 56.8765 25.9375 57.6248 26.8409Z" fill="#E27C37"/>
<path d="M10.7971 47.0064C10.613 46.6379 10.4348 46.2576 10.2685 45.8772C11.0287 45.1878 11.777 43.9278 10.8268 41.9368C9.65091 39.4703 9.08078 37.3486 8.03555 36.9207C8.03555 36.9028 8.03554 36.8909 8.0296 36.8731C8.57598 36.8018 9.32427 37.0514 9.87065 38.5907C10.5774 40.5936 13.8675 45.4731 10.7971 47.0064Z" fill="#E27C37"/>
<path opacity="0.35" d="M62.0374 34.9358C62.0374 36.5167 61.9008 38.0679 61.6394 39.5716C60.7308 44.8254 58.3078 49.5622 54.8395 53.3124C52.7906 55.5293 50.3735 57.4014 47.6891 58.8278C45.9431 59.7609 44.0842 60.5038 42.1363 61.0387C39.8617 61.6628 37.4683 61.9896 34.9978 61.9896C33.8635 61.9896 32.747 61.9183 31.6542 61.7816C22.4965 60.6524 14.7523 54.935 10.797 47.0007C9.25292 43.9102 8.28489 40.4868 8.02952 36.8674C7.982 36.2255 7.95825 35.5777 7.95825 34.9298C7.95825 30.8468 8.86096 26.9777 10.4763 23.5068C10.7376 46.9412 59.0917 52.831 60.3863 25.5989C61.3306 28.1783 61.8948 30.9359 62.0136 33.8184C62.0314 34.1929 62.0374 34.5614 62.0374 34.9358Z" fill="url(#paint2_linear_54_120)"/>
<path opacity="0.45" d="M51.3652 56.4744C50.2131 57.354 48.9837 58.1444 47.695 58.8338C45.949 59.7669 44.0902 60.5099 42.1422 61.0448C39.8676 61.6688 37.4743 61.9957 35.0037 61.9957C33.8694 61.9957 32.7529 61.9244 31.6602 61.7877C22.5025 60.6584 14.7582 54.941 10.8029 47.0067C9.25884 43.9162 8.29081 40.4928 8.03544 36.8734C7.98793 36.2315 7.96417 35.5837 7.96417 34.9359C7.96417 30.8528 8.86688 26.9837 10.4822 23.5129C11.9254 20.4105 13.9446 17.629 16.3914 15.3052C8.84906 51.3037 36.5894 56.2901 51.3652 56.4744Z" fill="url(#paint3_linear_54_120)"/>
<path d="M62.0374 34.9358C62.0374 36.5167 61.9008 38.0679 61.6395 39.5715C61.4969 40.3798 61.3247 41.1762 61.1168 41.9608C60.1785 20.1964 45.4502 7.82249 24.1951 10.1225C27.503 8.67832 31.1613 7.87598 34.9978 7.87598C46.6558 7.87598 56.5914 15.2575 60.3864 25.6108C61.3306 28.1901 61.8948 30.9478 62.0136 33.8303C62.0314 34.1929 62.0374 34.5614 62.0374 34.9358Z" fill="url(#paint4_linear_54_120)"/>
</g>
<defs>
<radialGradient id="paint0_radial_54_120" cx="0" cy="0" r="1" gradientUnits="userSpaceOnUse" gradientTransform="translate(35.0006 34.9981) scale(32.3859 32.4102)">
<stop stop-color="#FFD86C"/>
<stop offset="1" stop-color="#FFD160" stop-opacity="0"/>
</radialGradient>
<radialGradient id="paint1_radial_54_120" cx="0" cy="0" r="1" gradientUnits="userSpaceOnUse" gradientTransform="translate(33.8066 20.6099) scale(41.2873 41.3182)">
<stop stop-color="#FFE46A"/>
<stop offset="1" stop-color="#FFA44A"/>
</radialGradient>
<linearGradient id="paint2_linear_54_120" x1="11.9032" y1="49.2377" x2="59.7342" y2="26.8767" gradientUnits="userSpaceOnUse">
<stop stop-color="#E27437"/>
<stop offset="1" stop-color="#E27437" stop-opacity="0.2"/>
</linearGradient>
<linearGradient id="paint3_linear_54_120" x1="29.7749" y1="74.0726" x2="29.5107" y2="7.01333" gradientUnits="userSpaceOnUse">
<stop stop-color="#CC622E"/>
<stop offset="1" stop-color="#CC622E" stop-opacity="0.2"/>
</linearGradient>
<linearGradient id="paint4_linear_54_120" x1="59.0496" y1="7.86403" x2="42.586" y2="26.0917" gradientUnits="userSpaceOnUse">
<stop stop-color="#FFF2B6"/>
<stop offset="1" stop-color="#FFF49A" stop-opacity="0.2"/>
</linearGradient>
<clipPath id="clip0_54_120">
<rect width="70" height="70" fill="white"/>
</clipPath>
</defs>
</svg>
