<svg width="95" height="95" viewBox="0 0 95 95" fill="none" xmlns="http://www.w3.org/2000/svg">
<g clip-path="url(#clip0_54_7)">
<path d="M28.4047 17.2899C5.30251 31.7197 6.74576 67.2598 32.7154 79.0482C44.7301 84.5307 59.4015 82.8854 70.045 73.6147C75.7442 68.6459 79.5236 62.0561 81.1131 55.1445C88.0923 25.0722 55.1258 0.576236 28.4047 17.2899Z" fill="url(#paint0_radial_54_7)"/>
<path d="M71.2086 34.9956C71.5671 35.713 71.8907 36.4369 72.1817 37.1717C72.453 37.8561 72.6938 38.5449 72.9041 39.238C73.1122 39.9158 73.2898 40.5978 73.4434 41.2755C73.8846 43.2581 74.0971 45.2622 74.0918 47.2438C74.0885 47.8796 74.0634 48.5153 74.0209 49.1489C73.9336 50.3241 73.7765 51.4905 73.5366 52.6436C73.4156 53.2288 73.2794 53.8053 73.1191 54.3774C72.1037 58.0829 70.3058 61.5616 67.8208 64.5471C67.6382 64.7695 67.4469 64.9854 67.2555 65.2013C66.688 65.8402 66.09 66.4506 65.4592 67.0391C65.009 67.4554 64.5457 67.8564 64.0649 68.2443C62.579 69.4404 60.9426 70.4986 59.1665 71.3861C52.3057 74.8141 44.6815 75.0375 37.9722 72.6279C37.1765 72.3421 36.3939 72.017 35.6265 71.657C34.0655 70.9281 32.5739 70.0443 31.1671 69.0252C30.8094 68.7665 30.456 68.4948 30.1092 68.2144C28.8462 67.2 27.6701 66.0656 26.594 64.8156C25.1381 63.1322 23.867 61.2417 22.8266 59.1594C22.1861 57.8776 21.6589 56.572 21.2341 55.2536C21.072 54.7442 20.923 54.2392 20.7937 53.7298C20.6446 53.1592 20.5216 52.5865 20.4095 52.0138C20.2095 50.9603 20.0748 49.8959 20.0033 48.8383C19.8716 46.9197 19.9468 45.0015 20.2159 43.1231C20.3817 41.9743 20.6194 40.8387 20.9269 39.7229C21.5115 37.6158 22.3468 35.5857 23.4154 33.6742C23.4501 33.6131 23.4849 33.552 23.5196 33.4909C24.2386 32.2296 25.0622 31.0254 25.9839 29.887C27.8144 27.6275 30.0309 25.6399 32.6031 24.0375C33.3278 23.5825 34.0808 23.1625 34.86 22.7732C37.1847 21.6116 39.6014 20.8196 42.0362 20.3683C43.0728 20.1784 44.1117 20.0474 45.1507 19.982C45.5406 19.9567 45.9284 19.9379 46.3161 19.93C47.9303 19.8943 49.5382 20.0093 51.1202 20.2575C52.8351 20.5323 54.5154 20.9664 56.1437 21.5578C59.2695 22.6965 62.1894 24.4029 64.7376 26.6284C65.0561 26.9066 65.3746 27.1957 65.6801 27.4913C66.662 28.433 67.5809 29.4554 68.4258 30.5584C69.4846 31.9263 70.4152 33.4076 71.2086 34.9956Z" fill="url(#paint1_radial_54_7)"/>
<path d="M71.2086 34.9955C72.2294 37.0384 72.9671 39.1463 73.4434 41.2754C58.762 42.1057 42.7753 62.0659 26.5962 64.8199C25.1403 63.1365 23.8692 61.2459 22.8288 59.1636C22.1883 57.8819 21.6611 56.5763 21.2363 55.2579C50.3171 51.7156 53.1797 34.9946 68.441 30.5671C69.4846 31.9263 70.4152 33.4075 71.2086 34.9955Z" fill="url(#paint2_linear_54_7)"/>
<path d="M65.6997 27.4979C51.4316 31.8445 40.6765 48.6113 20.4204 52.0138C20.2204 50.9603 20.0857 49.8959 20.0142 48.8383C37.0624 47.2901 50.7079 31.5939 64.7571 26.6349C65.0778 26.9175 65.3942 27.2022 65.6997 27.4979Z" fill="url(#paint3_linear_54_7)"/>
<path d="M56.1655 21.5687C46.6173 37.06 27.1827 41.8671 20.229 43.1275C20.3948 41.9787 20.6325 40.8431 20.9399 39.7273C40.4235 35.519 48.5288 24.7613 51.1419 20.2685C52.8547 20.5388 54.5372 20.9774 56.1655 21.5687Z" fill="url(#paint4_linear_54_7)"/>
<path d="M46.3357 19.9364C42.4084 26.6221 33.2699 28.0284 23.4285 33.6784C24.1734 32.3495 25.0318 31.0842 25.997 29.8912C32.2641 27.0933 41.9457 24.8142 45.1682 19.9841C45.5581 19.9587 45.948 19.9443 46.3357 19.9364Z" fill="url(#paint5_linear_54_7)"/>
<path d="M42.058 20.3684C40.8212 21.9868 38.1236 24.1875 32.6249 24.0376C33.3496 23.5826 34.1026 23.1626 34.8818 22.7732C37.2065 21.6117 39.6167 20.8174 42.058 20.3684Z" fill="url(#paint6_linear_54_7)"/>
<path d="M74.0917 47.2438C74.0884 47.8796 74.0633 48.5154 74.0208 49.1489C61.2668 49.612 44.7137 64.4541 31.1758 69.0318C30.8181 68.7732 30.4647 68.5014 30.1179 68.221C47.7463 61.9876 62.3524 46.1995 74.0917 47.2438Z" fill="url(#paint7_linear_54_7)"/>
<path d="M65.457 67.0347C65.0067 67.451 64.5434 67.852 64.0626 68.2398C59.2311 69.741 41.5034 68.775 37.9721 72.6278C37.1765 72.342 36.3938 72.0169 35.6264 71.6569C45.2774 66.7144 59.4485 69.4574 65.457 67.0347Z" fill="url(#paint8_linear_54_7)"/>
<path d="M73.1234 54.3751C72.108 58.0806 70.3101 61.5592 67.8251 64.5448C62.57 65.4376 58.5811 64.0413 56.6053 64.0719C53.7145 64.1113 52.5656 63.5647 61.201 58.408C65.597 55.7741 69.9326 54.7503 73.1234 54.3751Z" fill="url(#paint9_linear_54_7)"/>
<path opacity="0.45" d="M72.9084 39.2358C76.1152 49.6495 72.7255 61.2436 64.0692 68.2421C48.6862 80.6462 25.6903 72.8277 20.8067 53.7342C24.7109 56.5395 31.1927 58.374 41.6654 55.0326C57.5117 49.9685 65.0539 41.1104 72.9084 39.2358Z" fill="url(#paint10_linear_54_7)"/>
<path opacity="0.55" d="M73.3897 53.3183C73.3097 53.6699 73.2209 54.0258 73.1235 54.3752C72.1081 58.0807 70.3102 61.5593 67.8252 64.5449C67.6426 64.7673 67.4513 64.9832 67.2599 65.1991C66.6924 65.838 66.0944 66.4484 65.4636 67.0369C65.0134 67.4532 64.55 67.8542 64.0692 68.242C62.5834 69.4382 60.947 70.4964 59.1708 71.3839C52.3101 74.8119 44.6859 75.0353 37.9765 72.6257C37.2921 72.3773 36.6185 72.107 35.9557 71.804C40.68 71.3186 46.5989 68.7384 53.9232 62.4819C60.3578 56.9817 67.0193 54.2764 73.3897 53.3183Z" fill="url(#paint11_linear_54_7)"/>
<path d="M71.2086 34.9955C71.5671 35.713 71.8907 36.4369 72.1817 37.1716C69.3732 31.7251 64.2116 26.1094 54.7378 23.7089C36.5486 19.0976 26.0566 30.3481 23.537 33.4931C24.256 32.2318 25.0796 31.0276 26.0013 29.8892C27.8318 27.6297 30.0483 25.6421 32.6205 24.0397C33.3452 23.5847 34.0982 23.1647 34.8774 22.7754C37.2021 21.6138 39.6188 20.8217 42.0536 20.3705C43.0902 20.1806 44.1291 20.0496 45.1681 19.9842C45.558 19.9589 45.9458 19.9401 46.3335 19.9322C47.9477 19.8965 49.5556 20.0115 51.1376 20.2597C52.8525 20.5345 54.5328 20.9686 56.1611 21.56C59.2869 22.6987 62.2068 24.4051 64.755 26.6306C65.0735 26.9088 65.392 27.1979 65.6975 27.4935C66.6794 28.4352 67.5983 29.4576 68.4432 30.5606C69.4846 31.9263 70.4151 33.4076 71.2086 34.9955Z" fill="url(#paint12_linear_54_7)"/>
</g>
<defs>
<radialGradient id="paint0_radial_54_7" cx="0" cy="0" r="1" gradientUnits="userSpaceOnUse" gradientTransform="translate(47.0169 47.0804) rotate(-26.5496) scale(32.3867 32.5456)">
<stop/>
<stop offset="1" stop-opacity="0"/>
</radialGradient>
<radialGradient id="paint1_radial_54_7" cx="0" cy="0" r="1" gradientUnits="userSpaceOnUse" gradientTransform="translate(36.3236 35.2737) rotate(-26.5496) scale(44.2954 44.5128)">
<stop stop-color="#FFA360"/>
<stop offset="1" stop-color="#F22749"/>
</radialGradient>
<linearGradient id="paint2_linear_54_7" x1="27.9257" y1="19.48" x2="71.3002" y2="81.9798" gradientUnits="userSpaceOnUse">
<stop stop-color="#FFBB71"/>
<stop offset="1" stop-color="#FFBB71" stop-opacity="0"/>
</linearGradient>
<linearGradient id="paint3_linear_54_7" x1="28.6719" y1="18.9621" x2="72.0462" y2="81.4616" gradientUnits="userSpaceOnUse">
<stop stop-color="#FFBB71"/>
<stop offset="1" stop-color="#FFBB71" stop-opacity="0"/>
</linearGradient>
<linearGradient id="paint4_linear_54_7" x1="28.8511" y1="18.8377" x2="72.2255" y2="81.3374" gradientUnits="userSpaceOnUse">
<stop stop-color="#FFBB71"/>
<stop offset="1" stop-color="#FFBB71" stop-opacity="0"/>
</linearGradient>
<linearGradient id="paint5_linear_54_7" x1="29.2011" y1="18.5946" x2="72.5757" y2="81.0945" gradientUnits="userSpaceOnUse">
<stop stop-color="#FFBB71"/>
<stop offset="1" stop-color="#FFBB71" stop-opacity="0"/>
</linearGradient>
<linearGradient id="paint6_linear_54_7" x1="33.0116" y1="15.9502" x2="76.3864" y2="78.4506" gradientUnits="userSpaceOnUse">
<stop stop-color="#FFBB71"/>
<stop offset="1" stop-color="#FFBB71" stop-opacity="0"/>
</linearGradient>
<linearGradient id="paint7_linear_54_7" x1="26.3797" y1="20.5529" x2="69.7541" y2="83.0527" gradientUnits="userSpaceOnUse">
<stop stop-color="#FFBB71"/>
<stop offset="1" stop-color="#FFBB71" stop-opacity="0"/>
</linearGradient>
<linearGradient id="paint8_linear_54_7" x1="19.8952" y1="25.0528" x2="63.2698" y2="87.5527" gradientUnits="userSpaceOnUse">
<stop stop-color="#FFBB71"/>
<stop offset="1" stop-color="#FFBB71" stop-opacity="0"/>
</linearGradient>
<linearGradient id="paint9_linear_54_7" x1="33.6871" y1="15.4817" x2="77.0615" y2="77.9813" gradientUnits="userSpaceOnUse">
<stop stop-color="#FFBB71"/>
<stop offset="1" stop-color="#FFBB71" stop-opacity="0"/>
</linearGradient>
<linearGradient id="paint10_linear_54_7" x1="55.5469" y1="72.6381" x2="43.5966" y2="36.6725" gradientUnits="userSpaceOnUse">
<stop stop-color="#D8274D"/>
<stop offset="1" stop-color="#F22749" stop-opacity="0"/>
</linearGradient>
<linearGradient id="paint11_linear_54_7" x1="59.6903" y1="70.3338" x2="49.5817" y2="54.7207" gradientUnits="userSpaceOnUse">
<stop stop-color="#A9273E"/>
<stop offset="1" stop-color="#B62738" stop-opacity="0"/>
</linearGradient>
<linearGradient id="paint12_linear_54_7" x1="54.7559" y1="6.30583" x2="47.2422" y2="37.2631" gradientUnits="userSpaceOnUse">
<stop stop-color="#FFECB8"/>
<stop offset="1" stop-color="#FFD371" stop-opacity="0.2"/>
</linearGradient>
<clipPath id="clip0_54_7">
<rect width="70" height="70.2905" fill="white" transform="translate(0 31.2881) rotate(-26.5496)"/>
</clipPath>
</defs>
</svg>
