<svg width="75" height="75" viewBox="0 0 75 75" fill="none" xmlns="http://www.w3.org/2000/svg">
<g clip-path="url(#clip0_54_172)">
<path d="M33.9299 0.185253C4.87607 2.94207 -10.7614 37.553 8.48305 61.1884C8.48305 61.1884 8.48304 61.1884 8.47874 61.1884C17.3714 72.1554 32.2211 77.5786 46.8599 73.8052C54.7023 71.7806 61.4815 67.2922 66.3152 61.4555C87.4105 36.0799 67.542 -3.01955 33.9299 0.185253Z" fill="url(#paint0_radial_54_172)"/>
<path d="M64.0727 40.0083C62.846 53.3186 51.7496 64.7034 37.0333 64.7034C18.6584 64.7034 5.65948 46.7884 11.1474 29.4118C13.037 23.3899 17.0357 18.1089 22.4806 14.637C23.6083 13.922 24.8006 13.2801 26.0445 12.7245C40.1582 6.45702 56.7641 13.2845 62.351 27.7879C63.9178 31.8671 64.4386 36.0239 64.0727 40.0083Z" fill="url(#paint1_radial_54_172)"/>
<path d="M49.8213 61.4987C46.012 63.5404 41.6561 64.6992 37.029 64.6992C26.4878 64.6992 17.3499 58.6816 12.8605 49.8899C14.763 50.8634 18.271 52.4098 22.3471 53.043C28.2612 53.9605 35.4192 52.7587 38.7851 54.4817C44.3979 57.3548 45.3104 60.6544 49.8213 61.4987Z" fill="url(#paint2_linear_54_172)"/>
<path d="M26.9786 49.0498C21.7575 49.4074 14.5048 46.9349 11.1302 45.6469C10.3339 43.0882 9.9035 40.3702 9.9035 37.5531C9.9035 36.5408 9.95946 35.5414 10.0671 34.5593C11.5391 36.3039 14.9137 39.9437 19.1577 42.1836C24.9039 45.2205 33.9988 48.5717 26.9786 49.0498Z" fill="url(#paint3_linear_54_172)"/>
<path d="M60.3023 51.5137C59.2822 53.2152 58.077 54.796 56.7211 56.2305C53.239 55.2785 49.3565 53.5555 46.2101 50.8891C40.6102 46.1465 39.8268 44.0229 26.9011 39.8705C17.8837 36.9715 13.1361 32.2117 11.0915 29.597C11.7286 27.5122 12.6109 25.5307 13.7085 23.6914C16.2696 26.4611 21.9469 31.8886 29.1393 34.4387C39.0349 37.9536 40.6274 37.6306 49.5631 45.7761C53.3681 49.2523 57.1817 50.8374 60.3023 51.5137Z" fill="url(#paint4_linear_54_172)"/>
<path d="M64.1588 37.5531C64.1588 40.5985 63.6595 43.5233 62.7341 46.2543C60.1128 46.1983 56.0539 45.1171 51.4698 40.3487C43.4897 32.0437 31.6831 30.4457 31.5238 27.7319C31.3646 25.0182 43.6533 27.2538 51.1513 31.4062C56.5445 34.3957 60.5389 36.5537 64.1373 36.459C64.1502 36.8208 64.1588 37.1869 64.1588 37.5531Z" fill="url(#paint5_linear_54_172)"/>
<path d="M25.9413 22.4639C22.6916 20.9476 18.921 20.7064 18.7618 21.9857C18.6025 23.2651 20.9957 27.4132 25.3043 26.6163C29.6085 25.8151 28.3345 23.5795 25.9413 22.4639Z" fill="url(#paint6_linear_54_172)"/>
<path d="M62.3511 27.7879C58.3223 25.3369 51.4484 23.657 40.7824 21.1845C31.808 19.104 27.8093 15.3995 26.0445 12.7245C28.3301 11.7122 30.7792 11.0015 33.3446 10.6526C35.3073 12.5177 39.3576 15.0721 47.6434 17.1914C52.3479 18.3932 56.0023 19.8793 58.8 21.3525C60.2592 23.3124 61.4558 25.4748 62.3511 27.7879Z" fill="url(#paint7_linear_54_172)"/>
<path d="M49.3952 55.0416C47.9963 54.2706 43.1712 51.5267 46.2057 57.1178C47.398 59.3147 52.5889 56.7991 49.3952 55.0416Z" fill="url(#paint8_linear_54_172)"/>
<path d="M42.8527 52.1642C42.1985 52.2116 42.5342 53.6029 43.1712 53.7623C43.8126 53.9217 45.091 52.0048 42.8527 52.1642Z" fill="url(#paint9_linear_54_172)"/>
<path opacity="0.45" d="M62.7298 46.2672C62.1057 48.1151 61.2879 49.8683 60.3022 51.5137C59.2821 53.2152 58.0769 54.7961 56.7211 56.2305C54.7282 58.3368 52.3996 60.1202 49.8256 61.4986C46.0163 63.5403 41.6604 64.6991 37.0333 64.6991C26.4922 64.6991 17.3542 58.6814 12.8648 49.8898C12.1719 48.5372 11.5908 47.1201 11.1345 45.6469C10.3382 43.0882 9.90781 40.3702 9.90781 37.553C9.90781 36.5408 9.96376 35.5414 10.0714 34.5593C10.2565 32.8535 10.6008 31.1908 11.0915 29.5927C11.1087 29.5324 11.1302 29.4678 11.1474 29.4075C15.0902 25.1732 22.5322 27.6026 26.264 33.1594C31.8639 41.5073 45.2502 66.379 62.7298 46.2672Z" fill="url(#paint10_linear_54_172)"/>
<path opacity="0.55" d="M62.8503 45.901C62.3596 47.4991 61.4514 49.6012 60.3022 51.5137C48.0738 71.8969 17.5952 67.6971 11.0011 45.2075C14.3885 49.8338 18.9381 53.3358 24.9856 55.0416C46.5414 61.1066 57.5862 52.9309 62.8503 45.901Z" fill="url(#paint11_linear_54_172)"/>
<path d="M62.351 27.788C63.9221 31.8629 64.4386 36.024 64.0727 40.0085C63.2463 32.9829 59.7685 21.5593 46.365 16.2352C36.5426 12.3326 28.3172 12.9701 22.4763 14.6371C23.604 13.9221 24.7963 13.2803 26.0402 12.7246C40.1582 6.45714 56.7641 13.2889 62.351 27.788Z" fill="url(#paint12_linear_54_172)"/>
</g>
<defs>
<radialGradient id="paint0_radial_54_172" cx="0" cy="0" r="1" gradientUnits="userSpaceOnUse" gradientTransform="translate(37.5006 37.4991) scale(32.1098 32.1341)">
<stop stop-color="#90DDEF"/>
<stop offset="1" stop-color="#A6D6F9" stop-opacity="0"/>
</radialGradient>
<radialGradient id="paint1_radial_54_172" cx="0" cy="0" r="1" gradientUnits="userSpaceOnUse" gradientTransform="translate(36.3114 27.0079) scale(27.1399 27.1604)">
<stop stop-color="#A0E2EA"/>
<stop offset="1" stop-color="#018ED9"/>
</radialGradient>
<linearGradient id="paint2_linear_54_172" x1="38.2485" y1="73.2703" x2="15.7205" y2="16.0349" gradientUnits="userSpaceOnUse">
<stop stop-color="#7E31A6"/>
<stop offset="1" stop-color="#7731B1" stop-opacity="0.2"/>
</linearGradient>
<linearGradient id="paint3_linear_54_172" x1="31.7184" y1="75.8404" x2="9.1904" y2="18.6052" gradientUnits="userSpaceOnUse">
<stop stop-color="#7E31A6"/>
<stop offset="1" stop-color="#7731B1" stop-opacity="0.2"/>
</linearGradient>
<linearGradient id="paint4_linear_54_172" x1="47.1713" y1="69.7581" x2="24.6433" y2="12.5228" gradientUnits="userSpaceOnUse">
<stop stop-color="#7E31A6"/>
<stop offset="1" stop-color="#7731B1" stop-opacity="0.2"/>
</linearGradient>
<linearGradient id="paint5_linear_54_172" x1="60.5385" y1="64.4968" x2="38.0105" y2="7.26144" gradientUnits="userSpaceOnUse">
<stop stop-color="#7E31A6"/>
<stop offset="1" stop-color="#7731B1" stop-opacity="0.2"/>
</linearGradient>
<linearGradient id="paint6_linear_54_172" x1="42.363" y1="71.6507" x2="19.8351" y2="14.4155" gradientUnits="userSpaceOnUse">
<stop stop-color="#7E31A6"/>
<stop offset="1" stop-color="#7731B1" stop-opacity="0.2"/>
</linearGradient>
<linearGradient id="paint7_linear_54_172" x1="61.4427" y1="64.1408" x2="38.9147" y2="6.90535" gradientUnits="userSpaceOnUse">
<stop stop-color="#7E31A6"/>
<stop offset="1" stop-color="#7731B1" stop-opacity="0.2"/>
</linearGradient>
<linearGradient id="paint8_linear_54_172" x1="52.5784" y1="67.6299" x2="30.0504" y2="10.3947" gradientUnits="userSpaceOnUse">
<stop stop-color="#7E31A6"/>
<stop offset="1" stop-color="#7731B1" stop-opacity="0.2"/>
</linearGradient>
<linearGradient id="paint9_linear_54_172" x1="49.6056" y1="68.8" x2="27.0776" y2="11.5646" gradientUnits="userSpaceOnUse">
<stop stop-color="#7E31A6"/>
<stop offset="1" stop-color="#7731B1" stop-opacity="0.2"/>
</linearGradient>
<linearGradient id="paint10_linear_54_172" x1="31.2475" y1="65.5366" x2="39.2711" y2="26.0218" gradientUnits="userSpaceOnUse">
<stop stop-color="#6D31A3"/>
<stop offset="1" stop-color="#B842B5" stop-opacity="0.3"/>
</linearGradient>
<linearGradient id="paint11_linear_54_172" x1="39.7679" y1="71.3155" x2="36.7315" y2="43.849" gradientUnits="userSpaceOnUse">
<stop stop-color="#471AA3"/>
<stop offset="1" stop-color="#4C2EA3" stop-opacity="0.1"/>
</linearGradient>
<linearGradient id="paint12_linear_54_172" x1="71.0205" y1="-6.79462" x2="40.9937" y2="30.0721" gradientUnits="userSpaceOnUse">
<stop stop-color="#A4F6F6"/>
<stop offset="1" stop-color="#B5F4F9" stop-opacity="0"/>
</linearGradient>
<clipPath id="clip0_54_172">
<rect width="75" height="75" fill="white"/>
</clipPath>
</defs>
</svg>
